<svg xmlns="http://www.w3.org/2000/svg" viewBox="0 0 963 1000"><g transform="translate(0,850) scale(1,-1)"><path d="M339 460v-369c0-6-2-11-6-15-4-4-9-6-15-6h-43c-6 0-11 2-15 6-4 4-6 9-6 15v369c0 6 2 11 6 15 4 3 9 5 15 5h43c6 0 11-2 15-5 4-4 6-9 6-15z m169 0v-369c0-6-1-11-5-15-4-4-10-6-16-6h-43c-6 0-11 2-15 6-4 4-6 9-6 15v369c0 6 2 11 6 15 4 3 9 5 15 5h43c6 0 12-2 16-5 4-4 5-9 5-15z m169 0v-369c0-6-2-11-6-15-4-4-9-6-14-6h-43c-6 0-11 2-15 6-4 4-6 9-6 15v369c0 6 2 11 6 15 4 3 9 5 15 5h43c5 0 10-2 14-5 4-4 6-9 6-15z m85-464v607h-592v-607c0-9 1-18 4-26 3-7 7-13 10-17 3-4 5-5 7-5h550c1 0 4 1 7 5 3 4 6 10 9 17 4 8 5 17 5 26z m-444 690h296l-32 74c-3 4-7 7-11 7h-209c-5 0-9-3-12-7l-32-74z m614-21v-41c0-6-2-11-6-15-4-4-9-6-16-6h-64v-607c0-35-10-66-31-92-20-26-45-39-74-39h-550c-29 0-54 12-75 38-20 25-31 55-32 90v610h-63c-6 0-11 2-15 6-4 4-6 9-6 15v41c0 6 2 11 6 15 4 4 9 6 15 6h204l46 107c8 16 20 29 37 40 18 11 35 16 52 17h211c18 0 36-6 52-17 17-12 29-25 36-40l46-107h205c7 0 12-2 16-6 4-4 6-9 6-15z"/></g></svg>
